# xmcd
#
# Track frame offsets:
#  150
#  12376
#  22594
#  34872
#  46500
#  59364
#  71628
#  84001
#  94124
#  102828
#  114371
#  126037
#  137646
#  149769
#  162341
#  174415
#
# Disc length: 2483 seconds
#
# Revision: 0
# Processed by: cddbd v1.5.2PL0 Copyright (c) Steve Scherf et al.
# Submitted via: AltoMP3_Maker 3.0
#
DISCID=c609b110
DTITLE=Various Artist - Country Classics Vol9
DYEAR=1900
DGENRE=
TTITLE0=Cold Cold Heart
TTITLE1=Wings Of A Dove
TTITLE2=Rueben James
TTITLE3=If You've Got The Money, I've Got The time
TTITLE4=Goodnight Irene
TTITLE5=I Wish I'd Never Seen Sunshine
TTITLE6=The Old Rattler's Treed Agin
TTITLE7=I Heard A Dukebox Playing
TTITLE8=Night Train To Memphis
TTITLE9=Mom and Dad's Waltz
TTITLE10=Rodeo Cowboy
TTITLE11=In The Dark
TTITLE12=Lost Highway
TTITLE13=Take The News To Mother
TTITLE14=I'll Go On Alone
TTITLE15=Marcheta
EXTD=
EXTT0=
EXTT1=
EXTT2=
EXTT3=
EXTT4=
EXTT5=
EXTT6=
EXTT7=
EXTT8=
EXTT9=
EXTT10=
EXTT11=
EXTT12=
EXTT13=
EXTT14=
EXTT15=
PLAYORDER=
